<svg width="256" height="63" viewBox="0 0 256 63" fill="none" xmlns="http://www.w3.org/2000/svg">
<g filter="url(#filter0_d_91_8)">
<rect x="9" y="2" width="231" height="38" rx="19" fill="#FF9C00"/>
</g>
<path d="M49.8338 27.1248C48.9813 27.1248 48.212 26.9428 47.5259 26.579C46.8501 26.2151 46.3147 25.6953 45.9196 25.0195C45.535 24.3437 45.3426 23.5536 45.3426 22.6492C45.3426 21.7551 45.5402 20.9702 45.9352 20.2944C46.3303 19.6082 46.8709 19.0832 47.557 18.7194C48.2432 18.3555 49.0125 18.1736 49.865 18.1736C50.7175 18.1736 51.4868 18.3555 52.173 18.7194C52.8591 19.0832 53.3998 19.6082 53.7948 20.2944C54.1899 20.9702 54.3874 21.7551 54.3874 22.6492C54.3874 23.5432 54.1847 24.3334 53.7792 25.0195C53.3842 25.6953 52.8384 26.2151 52.1418 26.579C51.4557 26.9428 50.6863 27.1248 49.8338 27.1248ZM49.8338 24.8168C50.3432 24.8168 50.7747 24.6296 51.1282 24.2554C51.492 23.8811 51.674 23.3457 51.674 22.6492C51.674 21.9526 51.4972 21.4172 51.1438 21.0429C50.8007 20.6687 50.3744 20.4815 49.865 20.4815C49.3452 20.4815 48.9138 20.6687 48.5707 21.0429C48.2276 21.4068 48.0561 21.9422 48.0561 22.6492C48.0561 23.3457 48.2224 23.8811 48.5551 24.2554C48.8982 24.6296 49.3244 24.8168 49.8338 24.8168ZM58.4688 19.5303C58.7183 19.1248 59.0769 18.7973 59.5448 18.5478C60.0126 18.2983 60.548 18.1736 61.151 18.1736C61.8683 18.1736 62.5181 18.3555 63.1003 18.7194C63.6825 19.0832 64.1399 19.603 64.4726 20.2788C64.8157 20.9546 64.9872 21.7395 64.9872 22.6336C64.9872 23.5276 64.8157 24.3178 64.4726 25.0039C64.1399 25.6797 63.6825 26.2047 63.1003 26.579C62.5181 26.9428 61.8683 27.1248 61.151 27.1248C60.5376 27.1248 60.0022 27.0052 59.5448 26.7661C59.0873 26.5166 58.7287 26.1891 58.4688 25.7836V27H55.8021V15.4601H58.4688V19.5303ZM62.2738 22.6336C62.2738 21.9682 62.0867 21.4484 61.7124 21.0741C61.3485 20.6895 60.8963 20.4971 60.3557 20.4971C59.8255 20.4971 59.3732 20.6895 58.999 21.0741C58.6351 21.4588 58.4532 21.9838 58.4532 22.6492C58.4532 23.3145 58.6351 23.8395 58.999 24.2242C59.3732 24.6089 59.8255 24.8012 60.3557 24.8012C60.8859 24.8012 61.3381 24.6089 61.7124 24.2242C62.0867 23.8291 62.2738 23.2989 62.2738 22.6336ZM70.3004 24.5049L72.1873 18.2983H75.0255L71.9378 27H68.6474L65.5597 18.2983H68.4135L70.3004 24.5049ZM77.4891 17.3938C77.0212 17.3938 76.6366 17.2587 76.3351 16.9884C76.044 16.7077 75.8985 16.3646 75.8985 15.9591C75.8985 15.5433 76.044 15.2002 76.3351 14.9299C76.6366 14.6492 77.0212 14.5089 77.4891 14.5089C77.9465 14.5089 78.3208 14.6492 78.6119 14.9299C78.9134 15.2002 79.0641 15.5433 79.0641 15.9591C79.0641 16.3646 78.9134 16.7077 78.6119 16.9884C78.3208 17.2587 77.9465 17.3938 77.4891 17.3938ZM78.8146 18.2983V27H76.148V18.2983H78.8146ZM84.7081 27.1248C83.8556 27.1248 83.0863 26.9428 82.4001 26.579C81.7243 26.2151 81.1889 25.6953 80.7939 25.0195C80.4092 24.3437 80.2169 23.5536 80.2169 22.6492C80.2169 21.7551 80.4144 20.9702 80.8095 20.2944C81.2045 19.6082 81.7451 19.0832 82.4313 18.7194C83.1175 18.3555 83.8868 18.1736 84.7393 18.1736C85.5918 18.1736 86.3611 18.3555 87.0472 18.7194C87.7334 19.0832 88.274 19.6082 88.6691 20.2944C89.0641 20.9702 89.2617 21.7551 89.2617 22.6492C89.2617 23.5432 89.0589 24.3334 88.6535 25.0195C88.2584 25.6953 87.7126 26.2151 87.0161 26.579C86.3299 26.9428 85.5606 27.1248 84.7081 27.1248ZM84.7081 24.8168C85.2175 24.8168 85.6489 24.6296 86.0024 24.2554C86.3663 23.8811 86.5482 23.3457 86.5482 22.6492C86.5482 21.9526 86.3715 21.4172 86.018 21.0429C85.6749 20.6687 85.2487 20.4815 84.7393 20.4815C84.2195 20.4815 83.788 20.6687 83.4449 21.0429C83.1019 21.4068 82.9303 21.9422 82.9303 22.6492C82.9303 23.3457 83.0967 23.8811 83.4293 24.2554C83.7724 24.6296 84.1987 24.8168 84.7081 24.8168ZM99.2689 18.2983V27H96.6022V25.8148C96.3319 26.1995 95.9629 26.5114 95.495 26.7505C95.0376 26.9792 94.5282 27.0936 93.9668 27.0936C93.3014 27.0936 92.714 26.948 92.2046 26.6569C91.6952 26.3554 91.3001 25.924 91.0194 25.3626C90.7387 24.8012 90.5984 24.141 90.5984 23.3821V18.2983H93.2494V23.0234C93.2494 23.6056 93.4002 24.0579 93.7017 24.3801C94.0032 24.7024 94.4086 24.8636 94.918 24.8636C95.4379 24.8636 95.8485 24.7024 96.15 24.3801C96.4515 24.0579 96.6022 23.6056 96.6022 23.0234V18.2983H99.2689ZM104.724 27.1248C103.965 27.1248 103.29 26.9948 102.697 26.7349C102.104 26.475 101.637 26.1215 101.293 25.6745C100.95 25.217 100.758 24.7076 100.716 24.1462H103.352C103.383 24.4477 103.523 24.692 103.773 24.8792C104.023 25.0663 104.329 25.1599 104.693 25.1599C105.026 25.1599 105.28 25.0975 105.457 24.9727C105.644 24.8376 105.738 24.666 105.738 24.4581C105.738 24.2086 105.608 24.0267 105.348 23.9123C105.088 23.7875 104.667 23.6524 104.085 23.5068C103.461 23.3613 102.941 23.2106 102.525 23.0546C102.11 22.8883 101.751 22.6336 101.449 22.2905C101.148 21.937 100.997 21.464 100.997 20.8714C100.997 20.3724 101.132 19.9201 101.403 19.5147C101.683 19.0988 102.089 18.7713 102.619 18.5322C103.16 18.2931 103.799 18.1736 104.537 18.1736C105.629 18.1736 106.486 18.4439 107.11 18.9845C107.744 19.5251 108.108 20.2424 108.202 21.1365H105.738C105.696 20.835 105.561 20.5959 105.332 20.4192C105.114 20.2424 104.823 20.154 104.459 20.154C104.147 20.154 103.908 20.2164 103.742 20.3412C103.575 20.4555 103.492 20.6167 103.492 20.8246C103.492 21.0741 103.622 21.2613 103.882 21.386C104.152 21.5108 104.568 21.6355 105.13 21.7603C105.774 21.9266 106.299 22.093 106.705 22.2593C107.11 22.4152 107.464 22.6751 107.765 23.039C108.077 23.3925 108.238 23.8707 108.249 24.4737C108.249 24.9831 108.103 25.4406 107.812 25.846C107.531 26.2411 107.121 26.553 106.58 26.7817C106.05 27.0104 105.431 27.1248 104.724 27.1248ZM112.547 15.4601V27H109.88V15.4601H112.547ZM123.368 18.2983L117.91 31.1325H115.041L117.037 26.7037L113.497 18.2983H116.475L118.487 23.7408L120.483 18.2983H123.368ZM127.107 22.6492C127.107 21.7447 127.289 20.9546 127.653 20.2788C128.027 19.603 128.541 19.0832 129.196 18.7194C129.862 18.3555 130.621 18.1736 131.473 18.1736C132.565 18.1736 133.474 18.4595 134.202 19.0312C134.94 19.603 135.424 20.4088 135.653 21.4484H132.814C132.575 20.783 132.113 20.4503 131.426 20.4503C130.938 20.4503 130.548 20.6427 130.257 21.0273C129.966 21.4016 129.82 21.9422 129.82 22.6492C129.82 23.3561 129.966 23.9019 130.257 24.2866C130.548 24.6608 130.938 24.848 131.426 24.848C132.113 24.848 132.575 24.5153 132.814 23.8499H135.653C135.424 24.8688 134.94 25.6693 134.202 26.2515C133.464 26.8337 132.554 27.1248 131.473 27.1248C130.621 27.1248 129.862 26.9428 129.196 26.579C128.541 26.2151 128.027 25.6953 127.653 25.0195C127.289 24.3437 127.107 23.5536 127.107 22.6492ZM139.746 15.4601V27H137.079V15.4601H139.746ZM143.019 17.3938C142.551 17.3938 142.167 17.2587 141.865 16.9884C141.574 16.7077 141.429 16.3646 141.429 15.9591C141.429 15.5433 141.574 15.2002 141.865 14.9299C142.167 14.6492 142.551 14.5089 143.019 14.5089C143.477 14.5089 143.851 14.6492 144.142 14.9299C144.443 15.2002 144.594 15.5433 144.594 15.9591C144.594 16.3646 144.443 16.7077 144.142 16.9884C143.851 17.2587 143.477 17.3938 143.019 17.3938ZM144.345 18.2983V27H141.678V18.2983H144.345ZM145.747 22.6492C145.747 21.7447 145.929 20.9546 146.293 20.2788C146.667 19.603 147.182 19.0832 147.837 18.7194C148.502 18.3555 149.261 18.1736 150.113 18.1736C151.205 18.1736 152.115 18.4595 152.842 19.0312C153.581 19.603 154.064 20.4088 154.293 21.4484H151.455C151.215 20.783 150.753 20.4503 150.067 20.4503C149.578 20.4503 149.188 20.6427 148.897 21.0273C148.606 21.4016 148.46 21.9422 148.46 22.6492C148.46 23.3561 148.606 23.9019 148.897 24.2866C149.188 24.6608 149.578 24.848 150.067 24.848C150.753 24.848 151.215 24.5153 151.455 23.8499H154.293C154.064 24.8688 153.581 25.6693 152.842 26.2515C152.104 26.8337 151.195 27.1248 150.113 27.1248C149.261 27.1248 148.502 26.9428 147.837 26.579C147.182 26.2151 146.667 25.6953 146.293 25.0195C145.929 24.3437 145.747 23.5536 145.747 22.6492ZM161.037 27L158.386 23.3509V27H155.719V15.4601H158.386V21.8382L161.021 18.2983H164.312L160.694 22.6647L164.343 27H161.037ZM174.013 18.2047C175.011 18.2047 175.811 18.5374 176.414 19.2028C177.017 19.8578 177.319 20.7622 177.319 21.9162V27H174.668V22.2749C174.668 21.6927 174.517 21.2405 174.215 20.9182C173.914 20.5959 173.508 20.4347 172.999 20.4347C172.49 20.4347 172.084 20.5959 171.783 20.9182C171.481 21.2405 171.33 21.6927 171.33 22.2749V27H168.664V15.4601H171.33V19.4679C171.601 19.0832 171.97 18.7765 172.438 18.5478C172.905 18.3191 173.43 18.2047 174.013 18.2047ZM187.374 22.5088C187.374 22.7583 187.359 23.0182 187.328 23.2885H181.293C181.334 23.8291 181.506 24.245 181.807 24.5361C182.119 24.8168 182.498 24.9571 182.946 24.9571C183.611 24.9571 184.074 24.6764 184.333 24.115H187.172C187.026 24.6868 186.761 25.2014 186.376 25.6589C186.002 26.1163 185.529 26.475 184.957 26.7349C184.385 26.9948 183.746 27.1248 183.039 27.1248C182.187 27.1248 181.428 26.9428 180.762 26.579C180.097 26.2151 179.577 25.6953 179.203 25.0195C178.829 24.3437 178.641 23.5536 178.641 22.6492C178.641 21.7447 178.823 20.9546 179.187 20.2788C179.562 19.603 180.081 19.0832 180.747 18.7194C181.412 18.3555 182.176 18.1736 183.039 18.1736C183.881 18.1736 184.63 18.3503 185.285 18.7038C185.94 19.0572 186.449 19.5615 186.813 20.2164C187.187 20.8714 187.374 21.6355 187.374 22.5088ZM184.645 21.8071C184.645 21.3496 184.489 20.9857 184.177 20.7154C183.866 20.4451 183.476 20.31 183.008 20.31C182.561 20.31 182.181 20.4399 181.87 20.6999C181.568 20.9598 181.381 21.3288 181.308 21.8071H184.645ZM191.448 19.7486C191.76 19.2704 192.15 18.8961 192.617 18.6258C193.085 18.3451 193.605 18.2047 194.177 18.2047V21.0273H193.444C192.779 21.0273 192.279 21.1729 191.947 21.464C191.614 21.7447 191.448 22.2437 191.448 22.961V27H188.781V18.2983H191.448V19.7486ZM203.654 22.5088C203.654 22.7583 203.638 23.0182 203.607 23.2885H197.572C197.614 23.8291 197.785 24.245 198.087 24.5361C198.399 24.8168 198.778 24.9571 199.225 24.9571C199.891 24.9571 200.353 24.6764 200.613 24.115H203.451C203.306 24.6868 203.041 25.2014 202.656 25.6589C202.282 26.1163 201.809 26.475 201.237 26.7349C200.665 26.9948 200.026 27.1248 199.319 27.1248C198.466 27.1248 197.707 26.9428 197.042 26.579C196.377 26.2151 195.857 25.6953 195.483 25.0195C195.108 24.3437 194.921 23.5536 194.921 22.6492C194.921 21.7447 195.103 20.9546 195.467 20.2788C195.841 19.603 196.361 19.0832 197.026 18.7194C197.692 18.3555 198.456 18.1736 199.319 18.1736C200.161 18.1736 200.909 18.3503 201.564 18.7038C202.219 19.0572 202.729 19.5615 203.093 20.2164C203.467 20.8714 203.654 21.6355 203.654 22.5088ZM200.925 21.8071C200.925 21.3496 200.769 20.9857 200.457 20.7154C200.145 20.4451 199.755 20.31 199.288 20.31C198.841 20.31 198.461 20.4399 198.149 20.6999C197.848 20.9598 197.661 21.3288 197.588 21.8071H200.925Z" fill="white"/>
<defs>
<filter id="filter0_d_91_8" x="0.663431" y="0.436894" width="254.968" height="61.9676" filterUnits="userSpaceOnUse" color-interpolation-filters="sRGB">
<feFlood flood-opacity="0" result="BackgroundImageFix"/>
<feColorMatrix in="SourceAlpha" type="matrix" values="0 0 0 0 0 0 0 0 0 0 0 0 0 0 0 0 0 0 127 0" result="hardAlpha"/>
<feMorphology radius="0.521036" operator="dilate" in="SourceAlpha" result="effect1_dropShadow_91_8"/>
<feOffset dx="3.64725" dy="10.4207"/>
<feGaussianBlur stdDeviation="5.73139"/>
<feComposite in2="hardAlpha" operator="out"/>
<feColorMatrix type="matrix" values="0 0 0 0 0 0 0 0 0 0 0 0 0 0 0 0 0 0 0.4 0"/>
<feBlend mode="normal" in2="BackgroundImageFix" result="effect1_dropShadow_91_8"/>
<feBlend mode="normal" in="SourceGraphic" in2="effect1_dropShadow_91_8" result="shape"/>
</filter>
</defs>
</svg>
