<svg width="355" height="119" viewBox="0 0 355 119" fill="none" xmlns="http://www.w3.org/2000/svg">
<g filter="url(#filter0_d_55_50)">
<rect x="16" y="3" width="309" height="73" rx="36.5" fill="#FF9C00"/>
</g>
<path d="M75.4093 53.2351C73.6851 53.2351 72.14 52.9552 70.774 52.3954C69.408 51.8356 68.3108 51.007 67.4822 49.9098C66.6761 48.8125 66.2506 47.4913 66.2058 45.9462H72.3191C72.4087 46.8196 72.711 47.4913 73.226 47.9616C73.7411 48.4094 74.4129 48.6334 75.2414 48.6334C76.0923 48.6334 76.7641 48.443 77.2568 48.0624C77.7494 47.6593 77.9957 47.1107 77.9957 46.4165C77.9957 45.8343 77.7942 45.3528 77.3911 44.9721C77.0104 44.5915 76.529 44.278 75.9468 44.0316C75.3869 43.7853 74.5808 43.5054 73.5283 43.1919C72.0056 42.7216 70.7628 42.2514 69.7999 41.7811C68.837 41.3109 68.0085 40.6167 67.3143 39.6986C66.6201 38.7805 66.273 37.5825 66.273 36.1045C66.273 33.91 67.068 32.197 68.6579 30.9654C70.2478 29.7114 72.3191 29.0843 74.8719 29.0843C77.4695 29.0843 79.5632 29.7114 81.1531 30.9654C82.743 32.197 83.594 33.9212 83.7059 36.1381H77.4919C77.4471 35.3768 77.1672 34.7833 76.6521 34.3579C76.1371 33.91 75.4765 33.6861 74.6704 33.6861C73.9762 33.6861 73.4164 33.8764 72.9909 34.2571C72.5654 34.6154 72.3527 35.1416 72.3527 35.8358C72.3527 36.5972 72.711 37.1906 73.4276 37.6161C74.1441 38.0415 75.2638 38.5006 76.7865 38.9932C78.3092 39.5083 79.5408 40.0009 80.4813 40.4712C81.4442 40.9414 82.2728 41.6244 82.967 42.5201C83.6611 43.4158 84.0082 44.5691 84.0082 45.9798C84.0082 47.3234 83.6611 48.5438 82.967 49.6411C82.2952 50.7383 81.3099 51.6116 80.0111 52.261C78.7123 52.9104 77.1784 53.2351 75.4093 53.2351ZM90.4317 32.3089C89.424 32.3089 88.5955 32.0178 87.9461 31.4356C87.3191 30.831 87.0056 30.092 87.0056 29.2187C87.0056 28.323 87.3191 27.584 87.9461 27.0018C88.5955 26.3972 89.424 26.0949 90.4317 26.0949C91.417 26.0949 92.2231 26.3972 92.8501 27.0018C93.4995 27.584 93.8242 28.323 93.8242 29.2187C93.8242 30.092 93.4995 30.831 92.8501 31.4356C92.2231 32.0178 91.417 32.3089 90.4317 32.3089ZM93.2868 34.2571V53H87.543V34.2571H93.2868ZM104.57 33.9884C105.891 33.9884 107.045 34.2571 108.03 34.7945C109.038 35.332 109.81 36.0374 110.348 36.9107V34.2571H116.091V52.9664C116.091 54.6907 115.744 56.247 115.05 57.6353C114.378 59.0461 113.337 60.1657 111.926 60.9943C110.538 61.8228 108.802 62.2371 106.72 62.2371C103.943 62.2371 101.693 61.5765 99.9684 60.2553C98.2442 58.9565 97.2589 57.1875 97.0126 54.9482H102.689C102.868 55.6648 103.294 56.2246 103.966 56.6277C104.637 57.0531 105.466 57.2659 106.451 57.2659C107.638 57.2659 108.579 56.9188 109.273 56.2246C109.989 55.5528 110.348 54.4667 110.348 52.9664V50.3128C109.788 51.1862 109.015 51.9027 108.03 52.4626C107.045 53 105.891 53.2687 104.57 53.2687C103.025 53.2687 101.626 52.8768 100.372 52.0931C99.1175 51.2869 98.121 50.1561 97.3821 48.7006C96.6655 47.2226 96.3072 45.5208 96.3072 43.595C96.3072 41.6692 96.6655 39.9785 97.3821 38.523C98.121 37.0674 99.1175 35.9478 100.372 35.164C101.626 34.3803 103.025 33.9884 104.57 33.9884ZM110.348 43.6286C110.348 42.1954 109.944 41.0646 109.138 40.236C108.355 39.4075 107.392 38.9932 106.25 38.9932C105.108 38.9932 104.134 39.4075 103.327 40.236C102.544 41.0422 102.152 42.1618 102.152 43.595C102.152 45.0281 102.544 46.1702 103.327 47.0211C104.134 47.8496 105.108 48.2639 106.25 48.2639C107.392 48.2639 108.355 47.8496 109.138 47.0211C109.944 46.1925 110.348 45.0617 110.348 43.6286ZM131.667 34.0556C133.862 34.0556 135.608 34.7722 136.907 36.2053C138.228 37.6161 138.889 39.5642 138.889 42.0499V53H133.179V42.8224C133.179 41.5684 132.854 40.5943 132.205 39.9001C131.555 39.206 130.682 38.8589 129.585 38.8589C128.487 38.8589 127.614 39.206 126.965 39.9001C126.315 40.5943 125.991 41.5684 125.991 42.8224V53H120.247V34.2571H125.991V36.7427C126.573 35.9142 127.356 35.2648 128.342 34.7945C129.327 34.3019 130.436 34.0556 131.667 34.0556ZM168.506 34.2571V53H162.762V50.4472C162.18 51.2757 161.385 51.9475 160.377 52.4626C159.392 52.9552 158.295 53.2015 157.086 53.2015C155.652 53.2015 154.387 52.888 153.29 52.261C152.193 51.6116 151.342 50.6823 150.737 49.4731C150.133 48.2639 149.83 46.8419 149.83 45.2073V34.2571H155.541V44.4347C155.541 45.6887 155.865 46.6628 156.515 47.357C157.164 48.0512 158.037 48.3983 159.135 48.3983C160.254 48.3983 161.139 48.0512 161.788 47.357C162.438 46.6628 162.762 45.6887 162.762 44.4347V34.2571H168.506ZM178.376 36.9107C178.935 36.0374 179.708 35.332 180.693 34.7945C181.678 34.2571 182.832 33.9884 184.153 33.9884C185.698 33.9884 187.098 34.3803 188.352 35.164C189.606 35.9478 190.591 37.0674 191.307 38.523C192.046 39.9785 192.416 41.6692 192.416 43.595C192.416 45.5208 192.046 47.2226 191.307 48.7006C190.591 50.1561 189.606 51.2869 188.352 52.0931C187.098 52.8768 185.698 53.2687 184.153 53.2687C182.854 53.2687 181.701 53 180.693 52.4626C179.708 51.9251 178.935 51.231 178.376 50.38V61.9348H172.632V34.2571H178.376V36.9107ZM186.571 43.595C186.571 42.1618 186.168 41.0422 185.362 40.236C184.578 39.4075 183.604 38.9932 182.44 38.9932C181.298 38.9932 180.324 39.4075 179.518 40.236C178.734 41.0646 178.342 42.1954 178.342 43.6286C178.342 45.0617 178.734 46.1925 179.518 47.0211C180.324 47.8496 181.298 48.2639 182.44 48.2639C183.582 48.2639 184.556 47.8496 185.362 47.0211C186.168 46.1702 186.571 45.0281 186.571 43.595ZM223.641 53H217.898L208.291 38.4558V53H202.547V29.4202H208.291L217.898 44.0316V29.4202H223.641V53ZM236.337 53.2687C234.5 53.2687 232.843 52.8768 231.365 52.0931C229.91 51.3093 228.757 50.1897 227.906 48.7341C227.077 47.2786 226.663 45.5767 226.663 43.6286C226.663 41.7028 227.088 40.0121 227.939 38.5566C228.79 37.0786 229.955 35.9478 231.433 35.164C232.911 34.3803 234.568 33.9884 236.404 33.9884C238.24 33.9884 239.897 34.3803 241.375 35.164C242.853 35.9478 244.017 37.0786 244.868 38.5566C245.719 40.0121 246.145 41.7028 246.145 43.6286C246.145 45.5543 245.708 47.2562 244.835 48.7341C243.984 50.1897 242.808 51.3093 241.308 52.0931C239.83 52.8768 238.173 53.2687 236.337 53.2687ZM236.337 48.2975C237.434 48.2975 238.363 47.8944 239.125 47.0883C239.908 46.2821 240.3 45.1289 240.3 43.6286C240.3 42.1282 239.92 40.975 239.158 40.1688C238.419 39.3627 237.501 38.9596 236.404 38.9596C235.284 38.9596 234.355 39.3627 233.616 40.1688C232.877 40.9526 232.507 42.1058 232.507 43.6286C232.507 45.1289 232.866 46.2821 233.582 47.0883C234.321 47.8944 235.239 48.2975 236.337 48.2975ZM276.097 34.2571L271.025 53H264.677L261.721 40.8406L258.664 53H252.349L247.244 34.2571H252.988L255.641 47.6593L258.799 34.2571H264.878L268.069 47.5921L270.689 34.2571H276.097Z" fill="white"/>
<defs>
<filter id="filter0_d_55_50" x="0" y="0" width="355" height="119" filterUnits="userSpaceOnUse" color-interpolation-filters="sRGB">
<feFlood flood-opacity="0" result="BackgroundImageFix"/>
<feColorMatrix in="SourceAlpha" type="matrix" values="0 0 0 0 0 0 0 0 0 0 0 0 0 0 0 0 0 0 127 0" result="hardAlpha"/>
<feMorphology radius="1" operator="dilate" in="SourceAlpha" result="effect1_dropShadow_55_50"/>
<feOffset dx="7" dy="20"/>
<feGaussianBlur stdDeviation="11"/>
<feComposite in2="hardAlpha" operator="out"/>
<feColorMatrix type="matrix" values="0 0 0 0 0 0 0 0 0 0 0 0 0 0 0 0 0 0 0.4 0"/>
<feBlend mode="normal" in2="BackgroundImageFix" result="effect1_dropShadow_55_50"/>
<feBlend mode="normal" in="SourceGraphic" in2="effect1_dropShadow_55_50" result="shape"/>
</filter>
</defs>
</svg>
