<svg width="237" height="80" viewBox="0 0 237 80" fill="none" xmlns="http://www.w3.org/2000/svg">
<g filter="url(#filter0_d_68_11)">
<rect x="10.6694" y="2" width="206" height="48.6667" rx="24.3333" fill="#FF9C00"/>
</g>
<path d="M53.9317 19.9929L49.0831 29.3709V34H45.6712V29.3709L40.8225 19.9929H44.6935L47.4071 25.8591L50.1007 19.9929H53.9317ZM65.8018 28.2535C65.8018 28.5728 65.7819 28.9053 65.742 29.2512H58.0201C58.0733 29.9429 58.2928 30.4749 58.6786 30.8474C59.0776 31.2066 59.5632 31.3861 60.1351 31.3861C60.9865 31.3861 61.5784 31.027 61.911 30.3087H65.5424C65.3562 31.0403 65.017 31.6987 64.5248 32.284C64.046 32.8693 63.4407 33.3282 62.7091 33.6608C61.9775 33.9933 61.1594 34.1596 60.2549 34.1596C59.1641 34.1596 58.193 33.9268 57.3417 33.4613C56.4904 32.9957 55.8253 32.3306 55.3464 31.466C54.8675 30.6013 54.6281 29.5904 54.6281 28.4331C54.6281 27.2758 54.8609 26.2648 55.3264 25.4002C55.8053 24.5356 56.4704 23.8705 57.3218 23.4049C58.1731 22.9393 59.1508 22.7065 60.2549 22.7065C61.3323 22.7065 62.2901 22.9327 63.1281 23.3849C63.9661 23.8372 64.6179 24.4824 65.0835 25.3204C65.5624 26.1584 65.8018 27.1361 65.8018 28.2535ZM62.31 27.3556C62.31 26.7703 62.1105 26.3047 61.7114 25.9589C61.3124 25.613 60.8135 25.4401 60.215 25.4401C59.643 25.4401 59.1574 25.6064 58.7584 25.9389C58.3726 26.2715 58.1332 26.7437 58.0401 27.3556H62.31ZM71.0138 24.4425C71.3464 23.9237 71.8053 23.5047 72.3906 23.1854C72.9759 22.8662 73.6609 22.7065 74.4457 22.7065C75.3636 22.7065 76.195 22.9393 76.9399 23.4049C77.6848 23.8705 78.2701 24.5356 78.6958 25.4002C79.1347 26.2648 79.3542 27.2691 79.3542 28.4131C79.3542 29.5571 79.1347 30.5681 78.6958 31.446C78.2701 32.3106 77.6848 32.9824 76.9399 33.4613C76.195 33.9268 75.3636 34.1596 74.4457 34.1596C73.6742 34.1596 72.9892 34 72.3906 33.6808C71.8053 33.3615 71.3464 32.9491 71.0138 32.4437V39.3075H67.6018V22.8662H71.0138V24.4425ZM75.8824 28.4131C75.8824 27.5618 75.6429 26.8967 75.164 26.4178C74.6985 25.9256 74.1198 25.6795 73.4281 25.6795C72.7497 25.6795 72.1711 25.9256 71.6922 26.4178C71.2266 26.91 70.9938 27.5817 70.9938 28.4331C70.9938 29.2844 71.2266 29.9562 71.6922 30.4483C72.1711 30.9405 72.7497 31.1866 73.4281 31.1866C74.1065 31.1866 74.6852 30.9405 75.164 30.4483C75.6429 29.9429 75.8824 29.2645 75.8824 28.4131ZM84.7939 26.9765C84.7939 25.5931 85.0932 24.3626 85.6918 23.2852C86.2904 22.1944 87.1218 21.3497 88.186 20.7511C89.2634 20.1392 90.4806 19.8333 91.8374 19.8333C93.5001 19.8333 94.9235 20.2723 96.1073 21.1502C97.2912 22.0281 98.0827 23.2253 98.4818 24.7418H94.7306C94.4512 24.1565 94.0522 23.7108 93.5334 23.4049C93.0279 23.0989 92.4493 22.946 91.7975 22.946C90.7466 22.946 89.8953 23.3118 89.2435 24.0434C88.5917 24.775 88.2658 25.7527 88.2658 26.9765C88.2658 28.2003 88.5917 29.178 89.2435 29.9096C89.8953 30.6412 90.7466 31.007 91.7975 31.007C92.4493 31.007 93.0279 30.8541 93.5334 30.5481C94.0522 30.2422 94.4512 29.7965 94.7306 29.2113H98.4818C98.0827 30.7277 97.2912 31.9249 96.1073 32.8028C94.9235 33.6674 93.5001 34.0998 91.8374 34.0998C90.4806 34.0998 89.2634 33.8005 88.186 33.2019C87.1218 32.59 86.2904 31.7453 85.6918 30.6678C85.0932 29.5904 84.7939 28.3599 84.7939 26.9765ZM103.983 19.2347V34H100.571V19.2347H103.983ZM108.172 21.7089C107.573 21.7089 107.081 21.536 106.695 21.1901C106.323 20.8309 106.137 20.392 106.137 19.8732C106.137 19.3411 106.323 18.9021 106.695 18.5563C107.081 18.1971 107.573 18.0176 108.172 18.0176C108.757 18.0176 109.236 18.1971 109.608 18.5563C109.994 18.9021 110.187 19.3411 110.187 19.8732C110.187 20.392 109.994 20.8309 109.608 21.1901C109.236 21.536 108.757 21.7089 108.172 21.7089ZM109.868 22.8662V34H106.456V22.8662H109.868ZM111.662 28.4331C111.662 27.2758 111.895 26.2648 112.36 25.4002C112.839 24.5356 113.498 23.8705 114.336 23.4049C115.187 22.9393 116.158 22.7065 117.249 22.7065C118.646 22.7065 119.81 23.0723 120.741 23.804C121.685 24.5356 122.304 25.5665 122.596 26.8967H118.965C118.659 26.0454 118.067 25.6197 117.189 25.6197C116.564 25.6197 116.065 25.8658 115.693 26.358C115.32 26.8368 115.134 27.5285 115.134 28.4331C115.134 29.3376 115.32 30.036 115.693 30.5282C116.065 31.007 116.564 31.2465 117.189 31.2465C118.067 31.2465 118.659 30.8208 118.965 29.9695H122.596C122.304 31.2731 121.685 32.2973 120.741 33.0423C119.796 33.7872 118.632 34.1596 117.249 34.1596C116.158 34.1596 115.187 33.9268 114.336 33.4613C113.498 32.9957 112.839 32.3306 112.36 31.466C111.895 30.6013 111.662 29.5904 111.662 28.4331ZM131.225 34L127.833 29.331V34H124.421V19.2347H127.833V27.3955L131.205 22.8662H135.416L130.786 28.453L135.456 34H131.225ZM147.828 22.7464C149.105 22.7464 150.129 23.1721 150.901 24.0234C151.672 24.8615 152.058 26.0188 152.058 27.4953V34H148.666V27.9542C148.666 27.2093 148.473 26.6306 148.087 26.2183C147.702 25.8059 147.183 25.5997 146.531 25.5997C145.879 25.5997 145.36 25.8059 144.975 26.2183C144.589 26.6306 144.396 27.2093 144.396 27.9542V34H140.984V19.2347H144.396V24.3626C144.742 23.8705 145.214 23.4781 145.813 23.1854C146.411 22.8928 147.083 22.7464 147.828 22.7464ZM164.924 28.2535C164.924 28.5728 164.904 28.9053 164.865 29.2512H157.143C157.196 29.9429 157.415 30.4749 157.801 30.8474C158.2 31.2066 158.686 31.3861 159.258 31.3861C160.109 31.3861 160.701 31.027 161.034 30.3087H164.665C164.479 31.0403 164.14 31.6987 163.647 32.284C163.169 32.8693 162.563 33.3282 161.832 33.6608C161.1 33.9933 160.282 34.1596 159.377 34.1596C158.287 34.1596 157.316 33.9268 156.464 33.4613C155.613 32.9957 154.948 32.3306 154.469 31.466C153.99 30.6013 153.751 29.5904 153.751 28.4331C153.751 27.2758 153.983 26.2648 154.449 25.4002C154.928 24.5356 155.593 23.8705 156.444 23.4049C157.296 22.9393 158.273 22.7065 159.377 22.7065C160.455 22.7065 161.413 22.9327 162.251 23.3849C163.089 23.8372 163.741 24.4824 164.206 25.3204C164.685 26.1584 164.924 27.1361 164.924 28.2535ZM161.433 27.3556C161.433 26.7703 161.233 26.3047 160.834 25.9589C160.435 25.613 159.936 25.4401 159.338 25.4401C158.766 25.4401 158.28 25.6064 157.881 25.9389C157.495 26.2715 157.256 26.7437 157.163 27.3556H161.433ZM170.136 24.7218C170.535 24.1099 171.034 23.631 171.633 23.2852C172.231 22.926 172.897 22.7464 173.628 22.7464V26.358H172.69C171.839 26.358 171.201 26.5442 170.775 26.9166C170.349 27.2758 170.136 27.9143 170.136 28.8321V34H166.724V22.8662H170.136V24.7218ZM185.754 28.2535C185.754 28.5728 185.734 28.9053 185.695 29.2512H177.973C178.026 29.9429 178.245 30.4749 178.631 30.8474C179.03 31.2066 179.516 31.3861 180.088 31.3861C180.939 31.3861 181.531 31.027 181.864 30.3087H185.495C185.309 31.0403 184.97 31.6987 184.477 32.284C183.998 32.8693 183.393 33.3282 182.662 33.6608C181.93 33.9933 181.112 34.1596 180.207 34.1596C179.117 34.1596 178.146 33.9268 177.294 33.4613C176.443 32.9957 175.778 32.3306 175.299 31.466C174.82 30.6013 174.581 29.5904 174.581 28.4331C174.581 27.2758 174.813 26.2648 175.279 25.4002C175.758 24.5356 176.423 23.8705 177.274 23.4049C178.126 22.9393 179.103 22.7065 180.207 22.7065C181.285 22.7065 182.243 22.9327 183.081 23.3849C183.919 23.8372 184.57 24.4824 185.036 25.3204C185.515 26.1584 185.754 27.1361 185.754 28.2535ZM182.263 27.3556C182.263 26.7703 182.063 26.3047 181.664 25.9589C181.265 25.613 180.766 25.4401 180.167 25.4401C179.595 25.4401 179.11 25.6064 178.711 25.9389C178.325 26.2715 178.086 26.7437 177.993 27.3556H182.263Z" fill="white"/>
<defs>
<filter id="filter0_d_68_11" x="0.00276691" y="2.98023e-07" width="236.667" height="79.3333" filterUnits="userSpaceOnUse" color-interpolation-filters="sRGB">
<feFlood flood-opacity="0" result="BackgroundImageFix"/>
<feColorMatrix in="SourceAlpha" type="matrix" values="0 0 0 0 0 0 0 0 0 0 0 0 0 0 0 0 0 0 127 0" result="hardAlpha"/>
<feMorphology radius="0.666667" operator="dilate" in="SourceAlpha" result="effect1_dropShadow_68_11"/>
<feOffset dx="4.66667" dy="13.3333"/>
<feGaussianBlur stdDeviation="7.33333"/>
<feComposite in2="hardAlpha" operator="out"/>
<feColorMatrix type="matrix" values="0 0 0 0 0 0 0 0 0 0 0 0 0 0 0 0 0 0 0.4 0"/>
<feBlend mode="normal" in2="BackgroundImageFix" result="effect1_dropShadow_68_11"/>
<feBlend mode="normal" in="SourceGraphic" in2="effect1_dropShadow_68_11" result="shape"/>
</filter>
</defs>
</svg>
